# xmcd CD database file
#
# Track frame offsets:
#	150
#	21562
#	40243
#	58958
#	77629
#
# Disc length: 1282 seconds
#
# Revision: 0
# Processed by: cddbd v1.5.1PL2 Copyright (c) Steve Scherf et al.
# Submitted via: CDex 1.51
#
DISCID=3f050005
DTITLE=リトル☆レンズ - トキメキHappy/ママの通販
DYEAR=2005
DGENRE=JPop
TTITLE0=トキメキHappy
TTITLE1=ママの通販
TTITLE2=スペシャルDay!!
TTITLE3=ママの通販(Fan Version)
TTITLE4=Popping Candy(Fan Version)
EXTD=YEAR: 2005.08.28
EXTT0=
EXTT1=
EXTT2=
EXTT3=
EXTT4=
PLAYORDER=
